<svg xmlns="http://www.w3.org/2000/svg" width="321.547" height="286.89" viewBox="0 0 321.547 286.89"><g id="Group_1" data-name="Group 1" transform="translate(-151.93 -288.198)"><path id="Path_1" data-name="Path 1" d="M169.311,449.524c-.869-2.788-2.363-6.153-6.414-6.153a4.734,4.734,0,0,0-4.924,5.048c0,2.694,1.927,4.471,5.646,6.154l1.252.578c3.766,1.682,7.236,4.237,7.236,9.235,0,5.721-4.481,9.764-11,9.764a15.416,15.416,0,0,1-4.824-.816c-1.349-.433-2.221-.816-2.8-1.011-.385-1.25-.966-4.521-1.449-7.459l1.449-.478c.966,2.5,3.572,7.843,8.542,7.843,3.135,0,5.066-2.455,5.066-5.437,0-2.694-1.3-4.622-5.115-6.493l-1.545-.772c-3.184-1.633-7.237-4.182-7.237-8.9,0-5.048,3.811-9.186,10.278-9.186a14.211,14.211,0,0,1,4.39.673c.773.294,1.447.388,2.028.627.194,1.683.483,3.8.963,6.493l-1.544.288Z" fill="#f7f7f7" fill-rule="evenodd"></path><path id="Path_2" data-name="Path 2" d="M186.442,469.874a6.1,6.1,0,0,1-2.94.888c-.964,0-2.753-.677-2.753-4.743V453.151h4.683a1.768,1.768,0,0,0,.288-2.4h-4.971v-6.637h-.911a7.044,7.044,0,0,1-4.059,3.516v3.121H172.5v2.4h3.28V467.8c0,4.32,1.788,6.2,5.406,6.2a3.143,3.143,0,0,0,1.591-.522l4.249-2.294-.583-1.3Z" fill="#f7f7f7" fill-rule="evenodd"></path><path id="Path_3" data-name="Path 3" d="M441.345,509.24a6.15,6.15,0,0,1-2.94.883c-.967,0-2.753-.678-2.753-4.743V492.512h4.683a1.77,1.77,0,0,0,.288-2.4h-4.971v-6.637h-.91a7.062,7.062,0,0,1-4.06,3.515v3.122H427.4v2.4h3.282v14.646c0,4.32,1.785,6.2,5.4,6.2a3.133,3.133,0,0,0,1.593-.522l4.247-2.287-.581-1.306Z" fill="#f7f7f7" fill-rule="evenodd"></path><path id="Path_4" data-name="Path 4" d="M188.714,470.241a3.343,3.343,0,1,1,6.659,0c0,2.293-1.449,3.754-3.377,3.754-1.835,0-3.282-1.461-3.282-3.754Z" fill="#f7f7f7" fill-rule="evenodd"></path><path id="Path_5" data-name="Path 5" d="M209.86,450.508c0-5.627-.383-6.043-4.39-6.36v-1.455h13.61v1.455c-3.429.317-3.813.733-3.813,6.36v13.64c0,5.676-.436,10.208-4.681,13.6a15.677,15.677,0,0,1-5.788,2.972l-.583-1.462a8.9,8.9,0,0,0,5.07-6.72,49.827,49.827,0,0,0,.575-9.064V450.508Z" fill="#f7f7f7" fill-rule="evenodd"></path><path id="Path_6" data-name="Path 6" d="M226.119,465.342c0,3.86,1.883,5,3.714,5a6.822,6.822,0,0,0,4.584-2.138V455.283c0-1.921-.289-2.132-1.93-2.443l-1.352-.261v-1.25c2.269-.105,6.176-.677,8.253-.938V468.1c0,2.194.288,2.555,1.591,2.555h1.835v1.46a61.448,61.448,0,0,0-8.011,1.878l-.386-.416v-3.388c-.967.783-1.93,1.56-2.994,2.287a7.058,7.058,0,0,1-4,1.517c-3.858,0-6.272-2.505-6.272-7.037V455.283c0-1.921-.483-2.182-1.543-2.393l-1.3-.311v-1.25c1.979-.105,5.645-.677,7.819-.938v14.951Z" fill="#f7f7f7" fill-rule="evenodd"></path><path id="Path_7" data-name="Path 7" d="M258.449,454.662a4.383,4.383,0,0,0-4.149-2.344c-1.352,0-5.4.988-5.4,9.17,0,6.309,3.427,9.064,5.934,9.064a5.964,5.964,0,0,0,3.619-1.3v-14.59ZM263.417,468c0,2.294.291,2.55,1.642,2.55h1.785v1.46a56.96,56.96,0,0,0-8.395,2.083v-3.022l-3.473,2.139a4.183,4.183,0,0,1-2.075.783c-4.2,0-9.7-3.594-9.7-11.258a12.545,12.545,0,0,1,12.885-12.607,21.031,21.031,0,0,1,2.366.261v-2.933c0-2.965-.094-3.071-3.427-3.282v-1.355c2.46-.411,5.885-1.145,8.395-1.772V468Z" fill="#f7f7f7" fill-rule="evenodd"></path><path id="Path_8" data-name="Path 8" d="M279.493,458.416c.672,0,.866-.316.866-1.461,0-2.083-1.494-4.793-3.618-4.793-2.025,0-4.052,2.45-4.441,6.354l7.193-.1Zm5.643,10.208c-2.749,4.327-6.368,5.371-7.72,5.371-6.321,0-10.034-4.849-10.13-10.947-.1-6.509,4.387-12.918,10.76-12.918a7.508,7.508,0,0,1,7.19,7.448c0,1.933-.1,2.038-1.016,2.243-.676.1-6.9.622-12.158.833-.1,6.565,3.716,9.276,7.333,9.276a7.73,7.73,0,0,0,5.066-2.189l.675.883Z" fill="#f7f7f7" fill-rule="evenodd"></path><path id="Path_9" data-name="Path 9" d="M323.064,450.308c-1.545-5.527-4.585-7.171-9.073-7.171-7.912,0-11.485,6.637-11.485,13.807,0,9.014,4.44,15.268,11.485,15.268,5.21,0,7.623-2.716,10.133-7.853l1.352.294a73.045,73.045,0,0,1-2.412,8.042,39.067,39.067,0,0,1-9.073,1.455c-12.643,0-17.756-8.286-17.756-15.945,0-10.174,7.817-17.011,18.625-17.011a35.457,35.457,0,0,1,8.687,1.26c.383,2.716.577,4.849.866,7.659l-1.349.2Z" fill="#f7f7f7" fill-rule="evenodd"></path><path id="Path_10" data-name="Path 10" d="M333.733,453.517c1.685-1.721,4.1-3.282,6.514-3.387,4.438,0,6.849,2.915,6.849,7.659v10.63c0,2.971.291,3.177,2.848,3.494v1.455H339.375v-1.455c2.463-.317,2.75-.523,2.75-3.494v-9.381c0-3.649-1.545-5.421-4.243-5.421a5.715,5.715,0,0,0-4.149,1.878v12.924c0,2.971.285,3.177,2.6,3.494v1.455H325.529v-1.455c2.944-.317,3.23-.523,3.23-3.494V447.741c0-2.977-.1-3.077-3.135-3.282V443.1c2.027-.311,5.6-1.144,8.109-1.771v12.19Z" fill="#f7f7f7" fill-rule="evenodd"></path><path id="Path_11" data-name="Path 11" d="M358.62,444.248a3.116,3.116,0,1,1-6.224,0,3.128,3.128,0,1,1,6.224,0Zm-.48,24.171c0,2.866.285,3.177,3.329,3.494v1.455h-11.58v-1.455c3.085-.317,3.28-.628,3.28-3.494V456.8c0-3.183-.1-3.283-3.091-3.594v-1.2a62.369,62.369,0,0,0,8.062-1.983v18.4Z" fill="#f7f7f7" fill-rule="evenodd"></path><path id="Path_12" data-name="Path 12" d="M369.644,468.419c0,2.866.195,3.177,3.327,3.494v1.455h-11.58v-1.455c2.994-.317,3.282-.628,3.282-3.494V447.841c0-3.077-.1-3.077-3.232-3.382V443.1c2.072-.311,5.646-1.144,8.2-1.771v27.092Z" fill="#f7f7f7" fill-rule="evenodd"></path><path id="Path_13" data-name="Path 13" d="M387.3,454.662a4.381,4.381,0,0,0-4.145-2.344c-1.356,0-5.407.988-5.407,9.17,0,6.309,3.426,9.064,5.934,9.064a5.948,5.948,0,0,0,3.618-1.3v-14.59ZM392.271,468c0,2.294.286,2.55,1.638,2.55H395.7v1.46a56.858,56.858,0,0,0-8.4,2.083v-3.022l-3.474,2.139a4.175,4.175,0,0,1-2.072.783c-4.2,0-9.7-3.594-9.7-11.258a12.545,12.545,0,0,1,12.883-12.607,20.9,20.9,0,0,1,2.363.261v-2.65c0-2.977-.094-3.077-3.423-3.282V443.1c2.46-.416,5.887-1.144,8.4-1.771V468Z" fill="#f7f7f7" fill-rule="evenodd"></path><path id="Path_14" data-name="Path 14" d="M404.573,455.283h.144c1.155-1.977,3.088-5.259,5.454-5.259a3.092,3.092,0,0,1,2.991,3.021,3.8,3.8,0,0,1-1.98,3.283,1.308,1.308,0,0,1-1.4-.205,3.1,3.1,0,0,0-2.216-1.151c-.822,0-1.932.628-2.993,2.922v10.525c0,2.866.288,3.177,3.812,3.494v1.455H396.467v-1.455c2.846-.317,3.135-.628,3.135-3.494V456.8c0-3.183-.1-3.283-3.087-3.594v-1.2a62.2,62.2,0,0,0,8.058-1.983v5.259Z" fill="#f7f7f7" fill-rule="evenodd"></path><path id="Path_15" data-name="Path 15" d="M424.917,458.416c.677,0,.872-.316.872-1.461,0-2.083-1.5-4.793-3.622-4.793-2.027,0-4.054,2.45-4.437,6.354l7.187-.1Zm5.646,10.208c-2.747,4.327-6.368,5.371-7.72,5.371-6.318,0-10.036-4.849-10.134-10.947-.094-6.509,4.393-12.918,10.761-12.918a7.506,7.506,0,0,1,7.189,7.448c0,1.933-.1,2.038-1.013,2.243-.675.1-6.9.622-12.16.833-.094,6.565,3.715,9.276,7.337,9.276a7.73,7.73,0,0,0,5.065-2.189l.675.883Z" fill="#f7f7f7" fill-rule="evenodd"></path><path id="Path_16" data-name="Path 16" d="M438.791,453.723c.966-.622,1.932-1.3,2.8-1.927a7.08,7.08,0,0,1,4.248-1.666c3.907,0,6.221,2.915,6.221,6.881v11.514c0,2.865.194,3.071,2.9,3.388v1.455h-10.81v-1.455c2.752-.317,2.948-.523,2.948-3.388V458.466c0-3.127-1.4-4.849-3.909-4.849a7.008,7.008,0,0,0-4.393,2.139v12.769c0,2.865.291,3.071,2.7,3.388v1.455H430.4v-1.455c3.135-.317,3.427-.523,3.427-3.388V456.8c0-3.183-.1-3.283-3.094-3.594v-1.2a62.207,62.207,0,0,0,8.059-1.983v3.7Z" fill="#f7f7f7" fill-rule="evenodd"></path><path id="Path_17" data-name="Path 17" d="M455.094,451.14c1.666-3.076-1.044-3.543-1.427-5.081a2.06,2.06,0,0,1,.13-1.678,2.233,2.233,0,0,1,3.105-.889c2.161,1.167,2.807,5.16-1.383,7.976l-.425-.328Z" fill="#f7f7f7" fill-rule="evenodd"></path><path id="Path_18" data-name="Path 18" d="M458.027,465.708c.774,3.127,3.279,6.3,5.934,6.3a3.219,3.219,0,0,0,3.282-3.388c0-1.716-1.06-3.227-3.665-4.376-2.657-1.144-5.987-3.121-5.987-6.932s2.749-7.081,7.673-7.186a10.386,10.386,0,0,1,4.44.939,36.42,36.42,0,0,1,1.158,5.259l-1.353.422c-1.493-3.494-3.232-4.643-4.968-4.643a2.875,2.875,0,0,0-2.8,3.077c0,1.721,1.691,3.127,3.763,3.96,3.621,1.46,6.32,3.593,6.32,7.4,0,5.159-4.487,7.453-8.442,7.453a9.2,9.2,0,0,1-5.89-2.082,25.621,25.621,0,0,1-.674-6.1l1.208-.106Z" fill="#f7f7f7" fill-rule="evenodd"></path><path id="Path_19" data-name="Path 19" d="M161.486,497.088h1.83a6.717,6.717,0,0,0,4.538-1.283,7.841,7.841,0,0,0,2.607-6.309c0-5.121-3.474-6.9-6.562-6.9-2.316,0-2.413.194-2.413,1.777v12.713Zm3.618-16.362c3.521,0,6.032.395,7.959,1.672a7.246,7.246,0,0,1,3.188,6.265c0,4.138-2.51,7.042-6.421,8.525.775,1.383,2.658,4.832,4.2,7.048a53.067,53.067,0,0,0,4,5.47,6.7,6.7,0,0,0,3.332,2.272l-.194,1.278-2.028-.1c-5.259-.4-6.9-1.772-8.78-4.532-1.544-2.272-3.138-5.421-4.537-7.987-.773-1.383-1.353-1.872-2.8-1.872h-1.544v6.6c0,5.321.383,5.721,4.051,6.015v1.377H151.93v-1.377c3.86-.294,4.246-.694,4.246-6.015V488.118c0-5.326-.386-5.72-4.052-6.014v-1.378Z" fill="#f7f7f7" fill-rule="evenodd"></path><path id="Path_20" data-name="Path 20" d="M191.6,497.782c.675,0,.87-.316.87-1.46,0-2.083-1.5-4.793-3.619-4.793-2.027,0-4.057,2.449-4.44,6.359l7.189-.106ZM197.245,508c-2.749,4.321-6.371,5.365-7.72,5.365-6.324,0-10.036-4.843-10.133-10.941-.1-6.515,4.39-12.924,10.761-12.924a7.5,7.5,0,0,1,7.186,7.448c0,1.927-.094,2.033-1.011,2.243-.677.106-6.9.623-12.157.834-.1,6.564,3.713,9.275,7.331,9.275a7.716,7.716,0,0,0,5.065-2.188l.678.888Z" fill="#f7f7f7" fill-rule="evenodd"></path><path id="Path_21" data-name="Path 21" d="M199.688,505.075c.773,3.127,3.28,6.309,5.932,6.309A3.223,3.223,0,0,0,208.9,508c0-1.722-1.061-3.232-3.666-4.382-2.652-1.144-5.982-3.121-5.982-6.926s2.749-7.086,7.67-7.192a10.428,10.428,0,0,1,4.441.938,36.607,36.607,0,0,1,1.157,5.26l-1.349.417c-1.5-3.494-3.235-4.638-4.971-4.638a2.876,2.876,0,0,0-2.8,3.077c0,1.716,1.688,3.127,3.76,3.96,3.622,1.461,6.323,3.594,6.323,7.4,0,5.154-4.488,7.448-8.445,7.448a9.166,9.166,0,0,1-5.884-2.083,25.247,25.247,0,0,1-.678-6.1l1.208-.1Z" fill="#f7f7f7" fill-rule="evenodd"></path><path id="Path_22" data-name="Path 22" d="M227.124,497.782c.678,0,.867-.316.867-1.46,0-2.083-1.494-4.793-3.615-4.793-2.027,0-4.055,2.449-4.438,6.359l7.186-.106ZM232.768,508c-2.75,4.321-6.365,5.365-7.715,5.365-6.325,0-10.039-4.843-10.136-10.941-.1-6.515,4.391-12.924,10.761-12.924a7.506,7.506,0,0,1,7.19,7.448c0,1.927-.1,2.033-1.014,2.243-.675.106-6.9.623-12.161.834-.094,6.564,3.716,9.275,7.335,9.275a7.724,7.724,0,0,0,5.067-2.188l.673.888Z" fill="#f7f7f7" fill-rule="evenodd"></path><path id="Path_23" data-name="Path 23" d="M245.4,499.915c-1.014.522-2.942,1.566-3.811,2.089a4.055,4.055,0,0,0-2.319,3.909c0,2.705,1.645,3.955,2.9,3.955A5.445,5.445,0,0,0,245.4,508.2v-8.287Zm8.494,10.631-4.97,2.815a3.752,3.752,0,0,1-3.428-3.282c-2.027,1.3-4.631,3.282-5.6,3.282-3.621,0-5.89-3.282-5.89-6.309a5.541,5.541,0,0,1,3.621-5.471,70.116,70.116,0,0,0,7.768-3.593v-1.4c0-3.078-1.253-4.483-3.474-4.483a2.646,2.646,0,0,0-1.883.884c-.773.677-1.255,1.877-1.638,3.86a1.465,1.465,0,0,1-1.545,1.144,2.608,2.608,0,0,1-2.46-2.294,3.375,3.375,0,0,1,1.494-2.393,20.666,20.666,0,0,1,8.059-3.8,6.675,6.675,0,0,1,4.149,1.249c1.832,1.511,2.027,3.233,2.027,5.054v11.153c0,2.083.674,2.916,1.349,2.916a4.891,4.891,0,0,0,1.933-.623l.483,1.3Z" fill="#f7f7f7" fill-rule="evenodd"></path><path id="Path_24" data-name="Path 24" d="M262.428,494.656h.145c1.158-1.983,3.088-5.266,5.451-5.266a3.087,3.087,0,0,1,2.994,3.022,3.8,3.8,0,0,1-1.983,3.282,1.3,1.3,0,0,1-1.394-.206,3.123,3.123,0,0,0-2.225-1.149c-.819,0-1.927.628-2.988,2.921v10.525c0,2.865.287,3.176,3.811,3.493v1.455H254.323v-1.455c2.843-.317,3.134-.628,3.134-3.493V496.166c0-3.182-.1-3.282-3.088-3.6v-1.194a63.082,63.082,0,0,0,8.059-1.983v5.266Z" fill="#f7f7f7" fill-rule="evenodd"></path><path id="Path_25" data-name="Path 25" d="M288.3,507.679c-1.978,3.282-5.016,5.682-8.009,5.682-6.515,0-10.18-5.315-10.18-10.891a13.041,13.041,0,0,1,4.437-9.853,13.2,13.2,0,0,1,8.012-3.121,7.859,7.859,0,0,1,4.39,1.4,1.708,1.708,0,0,1,.533,1.355c0,1.511-1.111,2.661-1.788,2.661a1.358,1.358,0,0,1-.916-.473,6.838,6.838,0,0,0-4.921-2.238c-1.833,0-4.777,1.666-4.777,7.6,0,7.4,4.727,9.486,7,9.486,2.024,0,3.375-.622,5.354-2.555l.867.938Z" fill="#f7f7f7" fill-rule="evenodd"></path><path id="Path_26" data-name="Path 26" d="M295.525,492.884c1.691-1.722,4.1-3.282,6.514-3.388,4.441,0,6.851,2.916,6.851,7.658v10.631c0,2.971.288,3.176,2.849,3.493v1.455H301.173v-1.455c2.457-.317,2.748-.522,2.748-3.493V498.4c0-3.649-1.543-5.421-4.245-5.421a5.72,5.72,0,0,0-4.151,1.877v12.924c0,2.971.291,3.176,2.6,3.493v1.455h-10.8v-1.455c2.943-.317,3.233-.522,3.233-3.493v-20.8c0-2.972-.1-3.078-3.139-3.289v-1.349c2.027-.316,5.6-1.15,8.107-1.772v12.308Z" fill="#f7f7f7" fill-rule="evenodd"></path><path id="Path_27" data-name="Path 27" d="M336.135,480.726V482.1c-3.569.294-3.957.688-3.957,6v6.6h14.673v-6.6c0-5.315-.389-5.709-4.057-6v-1.378h13.7V482.1c-3.86.294-4.246.688-4.246,6v17.239c0,5.321.386,5.716,4.149,6.01v1.377H342.408v-1.377c4.054-.294,4.443-.689,4.443-6.01v-8.369H332.178v8.369c0,5.321.388,5.716,4.149,6.01v1.377h-13.8v-1.377c3.862-.294,4.248-.689,4.248-6.01V488.107c0-5.315-.386-5.709-4.44-6v-1.378Z" fill="#f7f7f7" fill-rule="evenodd"></path><path id="Path_28" data-name="Path 28" d="M371.633,502c0-6.466-1.933-10.581-5.549-10.581-2.366,0-4.637,3.177-4.637,8.809,0,6.614,2.174,11.2,5.7,11.2,2.074,0,4.488-2.033,4.488-9.43Zm5.739-.995c0,8.181-5.548,12.352-10.71,12.352-7.237,0-10.955-5.782-10.955-11.463,0-8.342,6.032-12.4,11.049-12.4,6.371,0,10.616,5.315,10.616,11.513Z" fill="#f7f7f7" fill-rule="evenodd"></path><path id="Path_29" data-name="Path 29" d="M379.991,505.075c.772,3.127,3.282,6.309,5.934,6.309A3.222,3.222,0,0,0,389.208,508c0-1.722-1.061-3.232-3.669-4.382-2.649-1.144-5.981-3.121-5.981-6.926s2.752-7.086,7.672-7.192a10.386,10.386,0,0,1,4.435.938,35.619,35.619,0,0,1,1.161,5.26l-1.349.417c-1.494-3.494-3.235-4.638-4.968-4.638a2.878,2.878,0,0,0-2.8,3.077c0,1.716,1.691,3.127,3.763,3.96,3.621,1.461,6.322,3.594,6.322,7.4,0,5.154-4.487,7.448-8.441,7.448a9.173,9.173,0,0,1-5.887-2.083,25.1,25.1,0,0,1-.678-6.1l1.2-.1Z" fill="#f7f7f7" fill-rule="evenodd"></path><path id="Path_30" data-name="Path 30" d="M402.557,508.929a6.77,6.77,0,0,0,4.437,1.827c2.222,0,5.4-2.138,5.4-8.858,0-6.515-2.849-8.809-5.931-8.809a6.555,6.555,0,0,0-3.91,1.567v14.273Zm0-16.312,4.826-2.81a5.124,5.124,0,0,1,1.928-.311c5.5,0,8.252,5.16,8.252,9.8,0,7.759-5.309,12.608-11.68,14.068a6.774,6.774,0,0,1-3.326-.833v7.037c0,2.755.288,3.071,4.149,3.382v1.461h-12.4v-1.461c2.99-.311,3.279-.627,3.279-3.382V495.8c0-2.815-.1-2.915-3.279-3.232v-1.194c2.46-.522,5.209-1.466,8.25-2.4v3.643Z" fill="#f7f7f7" fill-rule="evenodd"></path><path id="Path_31" data-name="Path 31" d="M426.18,484.17a3.127,3.127,0,1,1-3.135-3.438,3.273,3.273,0,0,1,3.135,3.438Zm-.483,23.615c0,2.865.292,3.176,3.33,3.493v1.455h-11.58v-1.455c3.087-.317,3.279-.628,3.279-3.493V496.166c0-3.182-.1-3.282-3.088-3.6v-1.194a62.958,62.958,0,0,0,8.059-1.983v18.395Z" fill="#f7f7f7" fill-rule="evenodd"></path><path id="Path_32" data-name="Path 32" d="M453.7,499.915c-1.014.522-2.947,1.566-3.813,2.089a4.055,4.055,0,0,0-2.316,3.909c0,2.705,1.644,3.955,2.9,3.955A5.451,5.451,0,0,0,453.7,508.2v-8.287Zm8.492,10.631-4.971,2.815a3.755,3.755,0,0,1-3.427-3.282c-2.024,1.3-4.63,3.282-5.6,3.282-3.619,0-5.888-3.282-5.888-6.309a5.541,5.541,0,0,1,3.621-5.471c2.361-1.039,6.224-2.549,7.768-3.593v-1.4c0-3.078-1.258-4.483-3.474-4.483a2.647,2.647,0,0,0-1.883.884c-.772.677-1.255,1.877-1.641,3.86a1.463,1.463,0,0,1-1.545,1.144,2.607,2.607,0,0,1-2.457-2.294,3.38,3.38,0,0,1,1.491-2.393,20.7,20.7,0,0,1,8.059-3.8,6.669,6.669,0,0,1,4.149,1.249c1.835,1.511,2.027,3.233,2.027,5.054v11.153c0,2.083.678,2.916,1.353,2.916a4.92,4.92,0,0,0,1.929-.623l.484,1.3Z" fill="#f7f7f7" fill-rule="evenodd"></path><path id="Path_33" data-name="Path 33" d="M470.148,507.785c0,2.865.195,3.176,3.329,3.493v1.455H461.895v-1.455c2.994-.317,3.282-.628,3.282-3.493v-20.7c0-3.071-.094-3.071-3.232-3.388v-1.349c2.077-.316,5.642-1.15,8.2-1.772v27.209Z" fill="#f7f7f7" fill-rule="evenodd"></path><path id="Path_34" data-name="Path 34" d="M186.531,536.771H188.6l-1.013-3.571h-.039l-1.014,3.571Zm1.741-6.271.9,3.027c.583,1.977,1.155,3.993,1.65,5.615.441,1.445.625,1.561,1.377,1.656v.455h-3.415V540.8l.361-.061c.494-.1.522-.262.366-.878-.133-.489-.442-1.494-.717-2.339h-2.4c-.169.484-.4,1.395-.585,2.078-.234.861-.13,1.072.441,1.156l.364.044v.455h-2.882V540.8c.8-.128.949-.195,1.4-1.656l2.627-8.442.519-.2Z" fill="#f7f7f7" fill-rule="evenodd"></path><path id="Path_35" data-name="Path 35" d="M198.966,530.7v.456c-1.038.094-1.144.222-1.144,1.977v5.654c0,.939.078,1.4.3,1.589a1.705,1.705,0,0,0,1.064.227c.6,0,1.225-.061,1.5-.472a5.523,5.523,0,0,0,.636-1.633l.414.094c-.078.517-.36,2.178-.466,2.661h-6.1V540.8c1.091-.095,1.2-.223,1.2-1.977v-5.688c0-1.755-.106-1.883-1.142-1.977V530.7Z" fill="#f7f7f7" fill-rule="evenodd"></path><path id="Path_36" data-name="Path 36" d="M209.519,533.183c-.239-.938-.639-2.077-1.73-2.077-.858,0-1.325.778-1.325,1.7,0,.905.519,1.505,1.516,2.078l.339.193a3.363,3.363,0,0,1,1.952,3.122,3.006,3.006,0,0,1-2.963,3.294,3.41,3.41,0,0,1-1.3-.273c-.367-.15-.6-.278-.755-.344-.106-.422-.258-1.528-.389-2.516l.389-.161c.261.844.96,2.644,2.3,2.644.844,0,1.364-.828,1.364-1.833a2.375,2.375,0,0,0-1.378-2.194l-.417-.261a3.541,3.541,0,0,1-1.949-3.005,2.82,2.82,0,0,1,2.768-3.1,3.041,3.041,0,0,1,1.183.227c.208.1.392.129.542.206.056.572.133,1.289.264,2.2l-.414.094Z" fill="#f7f7f7" fill-rule="evenodd"></path><path id="Path_37" data-name="Path 37" d="M216.128,536.771h2.066L217.18,533.2h-.035l-1.017,3.571Zm1.741-6.271.9,3.027c.583,1.977,1.155,3.993,1.65,5.615.441,1.445.622,1.561,1.377,1.656v.455h-3.416V540.8l.364-.061c.491-.1.52-.262.364-.878-.131-.489-.444-1.494-.717-2.339h-2.4c-.169.484-.4,1.395-.586,2.078-.233.861-.127,1.072.444,1.156l.365.044v.455h-2.886V540.8c.8-.128.95-.195,1.4-1.656l2.622-8.442.519-.2Z" fill="#f7f7f7" fill-rule="evenodd"></path><path id="Path_38" data-name="Path 38" d="M232.151,533.505c-.417-1.849-1.236-2.4-2.444-2.4-2.13,0-3.093,2.221-3.093,4.627,0,3.021,1.2,5.115,3.093,5.115,1.4,0,2.052-.906,2.728-2.633l.363.1c-.158.784-.441,2.084-.647,2.7a8.782,8.782,0,0,1-2.444.484c-3.4,0-4.781-2.777-4.781-5.344,0-3.409,2.1-5.7,5.015-5.7a7.759,7.759,0,0,1,2.338.422c.1.911.156,1.622.233,2.566l-.361.061Z" fill="#f7f7f7" fill-rule="evenodd"></path><path id="Path_39" data-name="Path 39" d="M244.386,535.86a1.466,1.466,0,1,1-2.843,0,1.464,1.464,0,1,1,2.843,0Z" fill="#f7f7f7" fill-rule="evenodd"></path><path id="Path_40" data-name="Path 40" d="M255.989,538.787c0,1.494.133,1.8,1.13,1.8,2.158,0,3.277-1.9,3.277-4.594,0-3.477-1.4-4.676-3.485-4.676a1.64,1.64,0,0,0-.845.144,1.783,1.783,0,0,0-.077.794v6.532Zm1.341-8.087a4.507,4.507,0,0,1,3.635,1.428,5.477,5.477,0,0,1,1.094,3.376c0,3.994-2.469,5.749-5.509,5.749h-3.183V540.8c1.066-.095,1.167-.223,1.167-1.977v-5.688c0-1.755-.1-1.883-1.067-1.977V530.7Z" fill="#f7f7f7" fill-rule="evenodd"></path><path id="Path_41" data-name="Path 41" d="M268.71,537.259c-.275.161-.795.49-1.028.651a1.3,1.3,0,0,0-.621,1.216c0,.844.441,1.233.78,1.233a1.38,1.38,0,0,0,.869-.517v-2.583Zm2.285,3.316-1.339.873c-.6-.034-.854-.617-.921-1.023-.544.406-1.245,1.023-1.506,1.023a1.822,1.822,0,0,1-1.585-1.962,1.756,1.756,0,0,1,.972-1.71,17.924,17.924,0,0,0,2.094-1.116v-.439c0-.961-.339-1.394-.936-1.394a.681.681,0,0,0-.5.272,2.263,2.263,0,0,0-.445,1.2.408.408,0,0,1-.416.361.758.758,0,0,1-.661-.716,1.077,1.077,0,0,1,.4-.745,5.26,5.26,0,0,1,2.166-1.188,1.632,1.632,0,0,1,1.119.388,1.962,1.962,0,0,1,.547,1.578v3.476c0,.65.181.906.364.906a1.242,1.242,0,0,0,.52-.189l.127.405Z" fill="#f7f7f7" fill-rule="evenodd"></path><path id="Path_42" data-name="Path 42" d="M276.155,535.133c.258-.2.519-.406.753-.6a1.747,1.747,0,0,1,1.144-.522c1.052,0,1.675.911,1.675,2.143v3.588c0,.9.054.961.782,1.056v.455H277.6V540.8c.739-.095.792-.161.792-1.056V536.61c0-.977-.378-1.511-1.05-1.511a1.8,1.8,0,0,0-1.183.667v3.976c0,.9.077.961.728,1.056v.455h-2.988V540.8c.844-.095.922-.161.922-1.056v-3.654c0-.989-.028-1.022-.834-1.116V534.6a15.163,15.163,0,0,0,2.172-.622v1.156Z" fill="#f7f7f7" fill-rule="evenodd"></path><path id="Path_43" data-name="Path 43" d="M285.9,535.133c.258-.2.519-.406.753-.6a1.749,1.749,0,0,1,1.144-.522c1.053,0,1.674.911,1.674,2.143v3.588c0,.9.053.961.78,1.056v.455h-2.909V540.8c.739-.095.794-.161.794-1.056V536.61c0-.977-.378-1.511-1.052-1.511a1.8,1.8,0,0,0-1.184.667v3.976c0,.9.075.961.728,1.056v.455h-2.988V540.8c.844-.095.922-.161.922-1.056v-3.654c0-.989-.025-1.022-.831-1.116V534.6a15.09,15.09,0,0,0,2.169-.622v1.156Z" fill="#f7f7f7" fill-rule="evenodd"></path><path id="Path_44" data-name="Path 44" d="M295.994,534.205v.456l-.39.083c-.3.044-.288.261-.154.683l1.09,3.621c.248-.7.972-3.138,1.131-3.655s.127-.6-.183-.649l-.467-.083v-.456H299.4v.456c-.727.127-.766.177-1.133,1.1-.35.894-.844,2.26-1.6,4.515-.858,2.516-1.168,3.621-1.388,4.482-.092.355-.261.422-.42.422a.854.854,0,0,1-.721-.811.707.707,0,0,1,.308-.588,3.4,3.4,0,0,0,.961-1.378c.105-.294.275-.777.324-.977a.81.81,0,0,0-.038-.55c-.594-2.094-1.3-4.221-1.583-5.132-.3-.944-.378-.989-1.08-1.088v-.456Z" fill="#f7f7f7" fill-rule="evenodd"></path><path id="Path_45" data-name="Path 45" d="M307.57,533.266c.054-1.077.131-2.149.156-2.987h.234a.58.58,0,0,0,.674.421h5.354c.339,0,.417-.1.622-.421h.208c.031.677.081,1.91.158,2.954l-.39.033a3.2,3.2,0,0,0-.481-1.511c-.222-.311-.639-.405-1.441-.405h-.678v7.471c0,1.754.106,1.882,1.3,1.977v.455h-4V540.8c1.144-.095,1.249-.223,1.249-1.977V531.35h-.444c-1.116,0-1.455.2-1.663.484a4.24,4.24,0,0,0-.466,1.432Z" fill="#f7f7f7" fill-rule="evenodd"></path><path id="Path_46" data-name="Path 46" d="M320.226,535.066a2.739,2.739,0,0,1,1.754-1.055c1.195,0,1.845.911,1.845,2.387v3.317c0,.922.077.988.765,1.083v.455h-2.843V540.8c.661-.095.739-.161.739-1.083v-2.927c0-1.134-.417-1.689-1.144-1.689a1.446,1.446,0,0,0-1.116.584v4.032c0,.922.077.988.7,1.083v.455h-2.911V540.8c.795-.095.873-.161.873-1.083v-7.993c0-.927-.028-.96-.844-1.022v-.421c.544-.1,1.505-.361,2.183-.556v5.343Z" fill="#f7f7f7" fill-rule="evenodd"></path><path id="Path_47" data-name="Path 47" d="M332.2,537.91c0-2.011-.522-3.3-1.5-3.3-.636,0-1.247.993-1.247,2.749,0,2.06.584,3.488,1.534,3.488.561,0,1.21-.634,1.21-2.938Zm1.544-.311c0,2.554-1.494,3.849-2.883,3.849-1.949,0-2.948-1.8-2.948-3.572,0-2.6,1.622-3.865,2.973-3.865,1.714,0,2.858,1.66,2.858,3.588Z" fill="#f7f7f7" fill-rule="evenodd"></path><path id="Path_48" data-name="Path 48" d="M338,536.088c0-.989-.031-1.022-.834-1.116V534.6a15.2,15.2,0,0,0,2.169-.622v1.189c.233-.211.47-.406.756-.633a1.862,1.862,0,0,1,1.13-.522,1.619,1.619,0,0,1,1.533,1.222c.314-.278.636-.539.88-.734a1.769,1.769,0,0,1,1.119-.488c1.147,0,1.677.911,1.677,2.16v3.544c0,.922.075.988.8,1.083v.455h-2.907V540.8c.713-.095.763-.161.763-1.083v-3.072c0-.972-.311-1.51-1.011-1.51a1.8,1.8,0,0,0-1.222.65c0,.127.025.26.025.355v3.577c0,.922.054.988.742,1.083v.455h-2.858V540.8c.728-.095.781-.161.781-1.083v-3.072c0-1.01-.339-1.51-1-1.51a1.735,1.735,0,0,0-1.209.65v3.932c0,.922.05.988.7,1.083v.455H337.1V540.8c.847-.095.9-.161.9-1.083v-3.627Z" fill="#f7f7f7" fill-rule="evenodd"></path><path id="Path_49" data-name="Path 49" d="M353.588,537.259c-.272.161-.789.49-1.028.651a1.314,1.314,0,0,0-.622,1.216c0,.844.445,1.233.781,1.233a1.38,1.38,0,0,0,.869-.517v-2.583Zm2.288,3.316-1.338.873c-.6-.034-.858-.617-.922-1.023-.545.406-1.247,1.023-1.506,1.023a1.825,1.825,0,0,1-1.588-1.962,1.756,1.756,0,0,1,.977-1.71,17.825,17.825,0,0,0,2.089-1.116v-.439c0-.961-.333-1.394-.934-1.394a.68.68,0,0,0-.508.272,2.259,2.259,0,0,0-.441,1.2.408.408,0,0,1-.414.361.757.757,0,0,1-.663-.716,1.067,1.067,0,0,1,.4-.745,5.275,5.275,0,0,1,2.169-1.188,1.628,1.628,0,0,1,1.117.388,1.954,1.954,0,0,1,.546,1.578v3.476c0,.65.181.906.364.906a1.25,1.25,0,0,0,.522-.189l.128.405Z" fill="#f7f7f7" fill-rule="evenodd"></path><path id="Path_50" data-name="Path 50" d="M359.281,538.87c.208.972.883,1.961,1.6,1.961a.944.944,0,0,0,.884-1.055,1.512,1.512,0,0,0-.989-1.361,2.468,2.468,0,0,1-1.611-2.161,2.092,2.092,0,0,1,2.066-2.243,2.492,2.492,0,0,1,1.194.294,12.129,12.129,0,0,1,.311,1.639l-.361.127c-.406-1.083-.872-1.444-1.338-1.444s-.756.439-.756.961a1.513,1.513,0,0,0,1.017,1.233,2.48,2.48,0,0,1,1.7,2.3,2.21,2.21,0,0,1-2.273,2.322,2.283,2.283,0,0,1-1.589-.65,9.151,9.151,0,0,1-.183-1.9l.328-.028Z" fill="#f7f7f7" fill-rule="evenodd"></path><path id="Path_51" data-name="Path 51" d="M366.44,543.008a2.052,2.052,0,0,0,.985-1.755,1.255,1.255,0,0,0-.8-1.2c-.078,0-.183-.161-.183-.488a.806.806,0,0,1,.752-.778c.625,0,1.352.844,1.352,1.983a2.99,2.99,0,0,1-1.921,2.661l-.183-.423Z" fill="#f7f7f7" fill-rule="evenodd"></path><path id="Path_52" data-name="Path 52" d="M383.5,530.7c.025.256.081,1.461.156,2.4l-.389.066a3.374,3.374,0,0,0-.48-1.444c-.223-.278-.639-.372-1.445-.372h-.674c-.5,0-.519,0-.519.584v3.6h1.3c1.116,0,1.141-.1,1.272-1.3h.417v3.332h-.417c-.131-1.222-.156-1.282-1.272-1.282h-1.3v2.533c0,1.754.105,1.882,1.3,1.977v.455h-3.821V540.8c.961-.095,1.063-.223,1.063-1.977v-5.688c0-1.755-.1-1.883-1.063-1.977V530.7Z" fill="#f7f7f7" fill-rule="evenodd"></path><path id="Path_53" data-name="Path 53" d="M391.421,537.91c0-2.011-.519-3.3-1.491-3.3-.636,0-1.247.993-1.247,2.749,0,2.06.583,3.488,1.533,3.488.558,0,1.2-.634,1.2-2.938Zm1.55-.311c0,2.554-1.494,3.849-2.883,3.849-1.952,0-2.954-1.8-2.954-3.572,0-2.6,1.627-3.865,2.976-3.865,1.716,0,2.861,1.66,2.861,3.588Z" fill="#f7f7f7" fill-rule="evenodd"></path><path id="Path_54" data-name="Path 54" d="M398.519,538.754c0,1.2.506,1.56,1,1.56a1.735,1.735,0,0,0,1.233-.666v-4.027c0-.6-.075-.666-.52-.766l-.363-.078v-.395c.611-.027,1.663-.21,2.221-.288v5.521c0,.682.078.794.428.794h.494v.455a15.017,15.017,0,0,0-2.158.584l-.1-.129v-1.055c-.261.244-.52.49-.805.711a1.757,1.757,0,0,1-1.078.473c-1.038,0-1.691-.778-1.691-2.189v-3.638c0-.6-.128-.683-.414-.749l-.35-.1v-.395c.53-.027,1.516-.21,2.105-.288v4.66Z" fill="#f7f7f7" fill-rule="evenodd"></path><path id="Path_55" data-name="Path 55" d="M408.264,535.133c.258-.2.519-.406.752-.6a1.749,1.749,0,0,1,1.144-.522c1.05,0,1.675.911,1.675,2.143v3.588c0,.9.052.961.78,1.056v.455H409.7V540.8c.738-.095.794-.161.794-1.056V536.61c0-.977-.378-1.511-1.053-1.511a1.792,1.792,0,0,0-1.182.667v3.976c0,.9.075.961.727,1.056v.455H406V540.8c.847-.095.922-.161.922-1.056v-3.654c0-.989-.025-1.022-.827-1.116V534.6a15.24,15.24,0,0,0,2.169-.622v1.156Z" fill="#f7f7f7" fill-rule="evenodd"></path><path id="Path_56" data-name="Path 56" d="M420.032,535.427a1.156,1.156,0,0,0-1.119-.733c-.361,0-1.45.311-1.45,2.86,0,1.961.92,2.822,1.6,2.822a1.464,1.464,0,0,0,.974-.406v-4.543Zm1.342,4.154c0,.716.074.795.438.795h.48v.455a13.767,13.767,0,0,0-2.26.65v-.939l-.936.661a1,1,0,0,1-.555.245c-1.133,0-2.61-1.117-2.61-3.505a3.663,3.663,0,0,1,3.465-3.932,4.694,4.694,0,0,1,.636.083v-2.372c0-.927-.025-.96-.919-1.022v-.421c.661-.134,1.583-.361,2.261-.556v9.858Z" fill="#f7f7f7" fill-rule="evenodd"></path><path id="Path_57" data-name="Path 57" d="M428.749,536.593c.184,0,.233-.094.233-.455,0-.65-.4-1.494-.971-1.494-.545,0-1.092.761-1.195,1.983l1.933-.034Zm1.522,3.183a2.8,2.8,0,0,1-2.077,1.672c-1.7,0-2.706-1.506-2.731-3.411-.025-2.027,1.184-4.026,2.9-4.026a2.215,2.215,0,0,1,1.938,2.321c0,.6-.027.639-.271.7-.183.033-1.861.194-3.277.261-.028,2.043,1,2.893,1.977,2.893a1.963,1.963,0,0,0,1.363-.688l.181.278Z" fill="#f7f7f7" fill-rule="evenodd"></path><path id="Path_58" data-name="Path 58" d="M435.675,535.621h.038c.315-.616.834-1.644,1.47-1.644a.911.911,0,0,1,.808.945,1.223,1.223,0,0,1-.537,1.022.308.308,0,0,1-.374-.067.819.819,0,0,0-.6-.356c-.222,0-.52.2-.808.911v3.283c0,.888.08.988,1.027,1.083v.455h-3.207V540.8c.763-.095.844-.195.844-1.083v-3.627c0-.989-.025-1.022-.833-1.116V534.6a15.053,15.053,0,0,0,2.169-.622v1.644Z" fill="#f7f7f7" fill-rule="evenodd"></path><path id="Path_59" data-name="Path 59" d="M315.743,378.566a.753.753,0,0,1-.613.494,27.29,27.29,0,0,0-20.108,9.584s-.611.6-2.144-.62a1.652,1.652,0,0,1-.745-1.913c2.1-5.34,7.487-8.856,16.027-10.459l.249-.033c1.742-.244,5.812-.814,7.19,1.955a1.392,1.392,0,0,1,.144.992Zm24.4,26.456-.047-.063c3.025-4.416,7.178-10.081,8.67-11.125.1-.05.18-.084.3-.139a14.688,14.688,0,0,0,7.687-2.33,51,51,0,0,0,3.741-3.507,35.224,35.224,0,0,0,2.249-4.657v0l-.064.108.208-.494.036-.131.348-1.074a.916.916,0,0,0-.473-.767,1.231,1.231,0,0,0-.711-.078.556.556,0,0,0,.014-.06,3.131,3.131,0,0,0,.336-1.106.435.435,0,0,0-.006-.072,1.03,1.03,0,0,0-.521-.788,1.583,1.583,0,0,0-1.1-.067,1.756,1.756,0,0,0-.481-.456c-.086-.064-.583-.244-1.5.314a4.58,4.58,0,0,0-.994.961c.034-.281.072-.559.072-.559a.989.989,0,0,0-.611-.677,1.692,1.692,0,0,0-1.5.3,8.028,8.028,0,0,0-1.574,1.983,6.74,6.74,0,0,0-1.409,1.627,4.771,4.771,0,0,1-2.763.3,7.751,7.751,0,0,0,1.983-1.48,5.189,5.189,0,0,0,1.366-3.083,2.109,2.109,0,0,0-.047-.449,1.263,1.263,0,0,0-.625-.909c-.888-.45-1.938.453-2.135.642-.023.022-.308.333-.472.508a3.687,3.687,0,0,0-1.492.706,3.171,3.171,0,0,1-1.16.574,4.945,4.945,0,0,0-1.75.914l-.05.034c.012-.012.028-.015.042-.029-.114.079-1.069.731-1.375.939a10.992,10.992,0,0,0-2.915,2.263c-1.556,1.566-3.516,3.516-12.277,6.454-.07-3.252-2.053-11.977-2.449-15.312-.809-5.9-7.557-14.018-12.416-19.147,4.578,2.687,7.145,3.065,9.661-.414.669-1.05,1.713.086,2.668-.1,1.384-.734,1.206-1.122,1.206-2.142.4-1.086,1.494-.546,2.3-.683,2.041-.338.824-2.51,1.63-3.6,8.958-.536-1.153-8.883,4.89-12.346,3.921-1.857,5.4-4.332,7.156-6.723,1.449-1.977,1.744-.433,2.827-2.055,1.955-7.109-1.422-15.892-5.762-21.927-22.252-28.978-47.661-15.623-55.068,2.33-3.065,4.563-2.118,11.191-2.285,16.645-.58,1.894-1.7,1.844-3.326.722-.361,3.763,2.538,4.507,3.832,4.754.133.483.977,1.219,1.33,1.716a8.069,8.069,0,0,1-4.374-.768,3.012,3.012,0,0,0,.75,2.335,5.352,5.352,0,0,0,3.793,4.412c3.574,1.47,1.894,6.426,1.477,8.461-.136.45-.266.9-.386,1.331-3.3.855-5.495,3.879-6.378,7.023-.4,7.6-4.271,13.918-4.2,21.791a12.568,12.568,0,0,0,0,1.627c1.921,8.514-.534,19.68-.134,28.464-28.053,4.235-53.853,13.368-75.864,26.221,32.638-13.3,70.715-20.962,111.415-20.962s78.771,7.662,111.406,20.962c-23.782-13.886-52-23.439-82.69-27.146Z" fill="#f7f7f7" fill-rule="evenodd"></path><path id="Path_60" data-name="Path 60" d="M209.36,556.377c-.058.46-.18,2.037-.3,3.171l-.555.061a4.051,4.051,0,0,0-.3-1.866c-.233-.395-.731-.5-1.908-.522h-.947c-.675,0-.71,0-.835.772l-.767,4.637h1.749c1.533,0,1.6-.106,2.05-1.677h.55l-.694,4.321h-.553c.092-1.572.055-1.683-1.48-1.683H203.6l-.551,3.3c-.377,2.26-.25,2.41,1.428,2.538l-.092.583h-5.168l.086-.583c1.336-.128,1.5-.278,1.875-2.538l1.194-7.387c.375-2.261.25-2.41-1.122-2.538l.106-.588Z" fill="#f7f7f7" fill-rule="evenodd"></path><path id="Path_61" data-name="Path 61" d="M214.028,556.76a1.316,1.316,0,0,1-1.213,1.4c-.586,0-.924-.4-.944-1.049a1.328,1.328,0,0,1,1.213-1.4.966.966,0,0,1,.944,1.05Zm-4.259,6.037c1.067-1.15,2.477-2.139,3.154-2.139.628,0,.573.733.375,1.7l-1.174,5.559c-.106.484-.106.672.017.672a5.32,5.32,0,0,0,1.355-.972l.247.506a7.908,7.908,0,0,1-3.047,2.144c-.408,0-.73-.356-.483-1.6l1.1-5.366c.162-.778.181-.944.054-.944a4.135,4.135,0,0,0-1.37.966l-.233-.527Z" fill="#f7f7f7" fill-rule="evenodd"></path><path id="Path_62" data-name="Path 62" d="M215.259,562.8c1.03-1.15,2.352-2.139,2.941-2.139s.608.733.378,1.911l-.307,1.533h.051a10.681,10.681,0,0,1,3.083-3.066,2.29,2.29,0,0,1,1.074-.378c.392,0,1.088.25.6,2.644-.23,1.089-.588,2.849-.927,4.571-.106.566-.142.755-.016.755a4.178,4.178,0,0,0,1.282-.883l.231.528a7.109,7.109,0,0,1-2.905,1.994c-.533,0-.747-.484-.483-1.745l1.016-4.909c.181-.9.253-1.4-.178-1.4-.6,0-2.421,2.072-3.118,3.516-.122.483-.553,2.793-.661,3.971h-.017l-1.921.567c.264-1.155.477-2.294.691-3.444l.644-3.438c.139-.755.194-1.049.05-1.049a3.628,3.628,0,0,0-1.28.988l-.233-.527Z" fill="#f7f7f7" fill-rule="evenodd"></path><path id="Path_63" data-name="Path 63" d="M227.4,568.689c.3,0,.822-.416,1.533-1.277a11.313,11.313,0,0,0,1.233-1.866,16.113,16.113,0,0,0,.891-3.694,2.416,2.416,0,0,0-1.088-.25,1.624,1.624,0,0,0-.961.295,4.167,4.167,0,0,0-1.319,1.972,11.122,11.122,0,0,0-.733,3.648c0,.795.161,1.172.444,1.172Zm5.849-.438a6.809,6.809,0,0,1-2.9,2.016c-.342,0-.714-.234-.45-1.705l.361-1.989H230.2a11.863,11.863,0,0,1-2.246,2.727,4.027,4.027,0,0,1-1.658.967c-.606,0-1.264-.611-1.264-2.266a8.826,8.826,0,0,1,2.069-5.688,5.913,5.913,0,0,1,3.349-1.655,3.337,3.337,0,0,1,.75.061l.569-3.265c.142-.844.125-.944-.5-.944h-.839V556c1.428-.361,3.069-.883,3.208-.883.2,0,.213.355.108.983l-2,11.769c-.09.545-.109.755,0,.755a4.689,4.689,0,0,0,1.263-.883l.234.506Z" fill="#f7f7f7" fill-rule="evenodd"></path><path id="Path_64" data-name="Path 64" d="M238.041,555.71a1.328,1.328,0,0,0-1.213,1.4c.016.65.358,1.049.944,1.049a1.316,1.316,0,0,0,1.213-1.4.966.966,0,0,0-.944-1.05Zm-3.085,7.614a4.166,4.166,0,0,1,1.371-.966c.128,0,.106.166-.052.944l-1.1,5.366c-.248,1.243.075,1.6.483,1.6a7.893,7.893,0,0,0,3.047-2.144l-.251-.506a5.236,5.236,0,0,1-1.352.972c-.125,0-.125-.188-.019-.672l1.177-5.559c.194-.967.25-1.7-.375-1.7-.677,0-2.086.989-3.154,2.139l.23.527Z" fill="#f7f7f7" fill-rule="evenodd"></path><path id="Path_65" data-name="Path 65" d="M240.216,562.8c1.032-1.15,2.354-2.139,2.94-2.139s.609.733.375,1.911l-.3,1.533h.052a10.6,10.6,0,0,1,3.083-3.066,2.271,2.271,0,0,1,1.072-.378c.388,0,1.088.25.6,2.644-.234,1.089-.589,2.849-.928,4.571-.105.566-.144.755-.017.755a4.2,4.2,0,0,0,1.284-.883l.233.528a7.169,7.169,0,0,1-2.907,1.994c-.536,0-.747-.484-.481-1.745l1.017-4.909c.177-.9.25-1.4-.181-1.4-.6,0-2.424,2.072-3.118,3.516-.123.483-.55,2.793-.661,3.971h-.017l-1.928.567c.27-1.155.484-2.294.694-3.444l.648-3.438c.142-.755.192-1.049.05-1.049a3.636,3.636,0,0,0-1.28.988l-.233-.527Z" fill="#f7f7f7" fill-rule="evenodd"></path><path id="Path_66" data-name="Path 66" d="M252.657,562.419a5.605,5.605,0,0,0-.5,2.433c0,1.26.5,1.871,1,1.871.767,0,1.713-1.322,1.713-3.382,0-1.066-.325-1.844-1.1-1.844-.341,0-.786.294-1.107.922Zm2.248,10.342c0-.506-.411-1.051-1.233-1.595a7.239,7.239,0,0,0-1.319-.822,2.431,2.431,0,0,0-1.654,2.161c0,1.261,1.174,1.682,2.1,1.682,1,0,2.1-.444,2.1-1.426Zm3.353-11.725a2.79,2.79,0,0,1-1.575,1.11.558.558,0,0,1-.228.023,2.715,2.715,0,0,1,.178.989,4.254,4.254,0,0,1-1.25,3.077,7.008,7.008,0,0,1-2.457,1.344.505.505,0,0,0-.253.378c0,.355.7.794,1.463,1.276,1.569.945,2.214,1.912,2.214,2.817,0,2.2-3.053,3.038-4.316,3.038-1.533,0-3.171-.7-3.171-2.206,0-1.027,1.047-2.027,2.96-2.932a1.638,1.638,0,0,1-.8-1.111c0-.4.338-.672,1.177-1.26a2.386,2.386,0,0,1-1.871-2.561,4.5,4.5,0,0,1,1.335-3.183,4,4,0,0,1,2.658-1.177,2.284,2.284,0,0,1,1.48.523,8.1,8.1,0,0,0,2.33-.44l.131.295Z" fill="#f7f7f7" fill-rule="evenodd"></path><path id="Path_67" data-name="Path 67" d="M268.057,568.062a5.671,5.671,0,0,1-3.634,2.205c-1.353,0-2.106-1.094-2.106-3.005a7.852,7.852,0,0,1,1.908-5.093,4.678,4.678,0,0,1,3.066-1.511c.766,0,1.477.506,1.477,1.089a1.367,1.367,0,0,1-.494.927.483.483,0,0,1-.784-.027c-.446-.711-.855-.945-1.232-.945s-.8.34-1.178,1.139a9.74,9.74,0,0,0-.838,3.921c-.017,1.322.377,2.094,1.163,2.094a3.872,3.872,0,0,0,2.352-1.277l.3.483Z" fill="#f7f7f7" fill-rule="evenodd"></path><path id="Path_68" data-name="Path 68" d="M269.573,562.8c1.053-1.15,2.389-2.139,3.05-2.139.428,0,.605.523.411,1.572l-.928,4.849c-.164,1.022-.2,1.61.178,1.61.322,0,.927-.649,1.549-1.51a14.4,14.4,0,0,0,1.589-2.622c.106-.455.444-2.177.605-3.332l1.638-.567h.217c-.45,2.411-.891,4.822-1.3,7.237-.094.544-.128.733,0,.733a4.215,4.215,0,0,0,1.244-.883l.25.528a7.478,7.478,0,0,1-2.852,1.994c-.553,0-.694-.656-.481-1.811l.392-2.094h-.053a11.256,11.256,0,0,1-2.816,3.355,2.435,2.435,0,0,1-1.339.55c-.371,0-1.105-.3-.66-2.666l.786-4.216c.141-.755.2-1.027.036-1.027a3.791,3.791,0,0,0-1.283.966l-.234-.527Z" fill="#f7f7f7" fill-rule="evenodd"></path><path id="Path_69" data-name="Path 69" d="M279.771,563.324a4.234,4.234,0,0,1,1.263-.988c.125,0,.108.294-.036,1.155l-.589,3.371c-.194,1.161-.408,2.266-.622,3.405l1.91-.611h.017c.034-.711.267-2.16.623-4.155a7.258,7.258,0,0,1,.96-2.2c.395-.628.661-.694.842-.694a.911.911,0,0,1,.569.249.343.343,0,0,0,.533.023,1.921,1.921,0,0,0,.536-.689,1.147,1.147,0,0,0,.053-.966,1.077,1.077,0,0,0-.961-.567c-.516,0-1.533,1.256-2.391,3.06h-.05l.32-1.593c.138-.734.121-1.467-.34-1.467-.6,0-1.835.989-2.871,2.139l.234.527Z" fill="#f7f7f7" fill-rule="evenodd"></path><path id="Path_70" data-name="Path 70" d="M290,561.814c-.5.332-1.264,1.316-1.567,3.687,2.139-.861,2.9-1.76,2.9-2.932,0-.778-.483-.988-.749-.988a1.1,1.1,0,0,0-.589.233Zm2.566,6.037c-1.761,2.1-3.31,2.416-4.079,2.416-.84,0-2.053-.611-2.053-3.067a7.322,7.322,0,0,1,2.105-5.242,4.852,4.852,0,0,1,2.832-1.3,1.608,1.608,0,0,1,1.731,1.678c0,1.933-3.049,3.249-4.74,3.876a4.076,4.076,0,0,0-.034.423c0,.982.245,2.221,1.3,2.221a3.91,3.91,0,0,0,2.638-1.51l.3.505Z" fill="#f7f7f7" fill-rule="evenodd"></path><path id="Path_71" data-name="Path 71" d="M299.343,561.747a1.178,1.178,0,0,1-.373.844c-.3.266-.516.25-.644.083a1.91,1.91,0,0,0-1.372-.86.983.983,0,0,0-.91,1.066c0,.634.677,1.155,1.247,1.533,1.072.711,1.591,1.382,1.591,2.289a3.8,3.8,0,0,1-3.427,3.565c-.675,0-1.817-.567-1.836-1.322a1.339,1.339,0,0,1,.52-1.028.425.425,0,0,1,.675.084,2.387,2.387,0,0,0,1.729,1.044,1.059,1.059,0,0,0,.964-1.088c0-.484-.158-.945-1.036-1.634-.763-.611-1.744-1.093-1.744-2.288a3.107,3.107,0,0,1,.961-2.288,3.3,3.3,0,0,1,2.174-1.089c.787,0,1.481.506,1.481,1.089Z" fill="#f7f7f7" fill-rule="evenodd"></path><path id="Path_72" data-name="Path 72" d="M300.27,568.917c0-.916.517-1.571,1.25-1.571.622,0,1.066.571,1.066,1.366,0,.988-.606,1.555-1.244,1.555s-1.072-.567-1.072-1.35Z" fill="#f7f7f7" fill-rule="evenodd"></path><path id="Path_73" data-name="Path 73" d="M309.843,565.9c.158,1.194,1.013,3.582,2.779,3.582,1.516,0,2.191-1.294,2.191-2.621a3.339,3.339,0,0,0-1.566-2.849l-.428-.311a4.431,4.431,0,0,1-2.124-3.527,3.912,3.912,0,0,1,3.96-4.109,4.24,4.24,0,0,1,1.8.377c.322.144.539.25.714.333-.053.906-.053,1.744-.07,2.916l-.555.067c-.122-1.133-.478-2.855-2.171-2.855-1.322,0-1.964,1.066-1.964,2.35a3.115,3.115,0,0,0,1.553,2.477l.605.46a4.466,4.466,0,0,1,2.082,3.688,4.222,4.222,0,0,1-4.2,4.448,3.816,3.816,0,0,1-3.086-1.321c-.017-.461-.033-1.594-.069-3.044l.553-.061Z" fill="#f7f7f7" fill-rule="evenodd"></path><path id="Path_74" data-name="Path 74" d="M322.389,561.835a3.881,3.881,0,0,0-1.441,2.178,11.24,11.24,0,0,0-.662,3.566c0,.71.162,1.072.395,1.072.158,0,.694-.417,1.3-1.178a16.118,16.118,0,0,0,1.5-2.283,22.1,22.1,0,0,0,.68-3.355,1.97,1.97,0,0,0-1-.21,1.418,1.418,0,0,0-.769.21Zm.986,4.677a14.518,14.518,0,0,1-2.127,2.638,4.636,4.636,0,0,1-1.778,1.117c-.45,0-1.108-.484-1.108-2.31a9.355,9.355,0,0,1,1.958-5.516,5.517,5.517,0,0,1,3.713-1.783,4.6,4.6,0,0,1,1.014.167,5.23,5.23,0,0,0,1.015.128c-.388,2.177-.838,4.571-1.21,6.942-.089.544-.108.733.036.733a4,4,0,0,0,1.3-.883l.217.528a7.553,7.553,0,0,1-2.907,1.994c-.25,0-.7-.234-.462-1.6l.373-2.156Z" fill="#f7f7f7" fill-rule="evenodd"></path><path id="Path_75" data-name="Path 75" d="M327.417,562.946c.768-1.01,2.017-2.288,2.711-2.288.517,0,.642.756.728,2.183.075,1.261.164,3.416.164,4.949h.033c.589-.9.98-1.555,1.446-2.35a6.124,6.124,0,0,0,1.072-2.749,4.607,4.607,0,0,0-.2-.989,1.057,1.057,0,0,1,.98-1.044c.5,0,.874.439.874,1.156,0,.627-.3,1.172-1.305,2.7-1.1,1.676-2.615,4.193-3.737,5.748h-.7c-.036-1.722-.2-5.665-.3-6.465-.072-.856-.106-1.383-.322-1.383-.2,0-.589.317-1.25.989l-.2-.462Z" fill="#f7f7f7" fill-rule="evenodd"></path><path id="Path_76" data-name="Path 76" d="M339.4,555.71a1.326,1.326,0,0,0-1.211,1.4c.016.65.356,1.049.942,1.049a1.316,1.316,0,0,0,1.213-1.4.966.966,0,0,0-.944-1.05Zm-3.083,7.614a4.084,4.084,0,0,1,1.369-.966c.125,0,.109.166-.052.944l-1.1,5.366c-.25,1.243.071,1.6.482,1.6a7.927,7.927,0,0,0,3.046-2.144l-.246-.506a5.226,5.226,0,0,1-1.362.972c-.121,0-.121-.188-.016-.672l1.183-5.559c.195-.967.244-1.7-.378-1.7-.677,0-2.082.989-3.154,2.139l.233.527Z" fill="#f7f7f7" fill-rule="evenodd"></path><path id="Path_77" data-name="Path 77" d="M341.572,562.8c1.03-1.15,2.352-2.139,2.943-2.139s.606.733.37,1.911l-.3,1.533h.053a10.6,10.6,0,0,1,3.085-3.066,2.252,2.252,0,0,1,1.069-.378c.389,0,1.086.25.605,2.644-.233,1.089-.588,2.849-.93,4.571-.105.566-.139.755-.016.755a4.144,4.144,0,0,0,1.285-.883l.231.528a7.193,7.193,0,0,1-2.9,1.994c-.539,0-.75-.484-.483-1.745l1.019-4.909c.178-.9.247-1.4-.181-1.4-.6,0-2.424,2.072-3.118,3.516a39.01,39.01,0,0,0-.658,3.971h-.02l-1.924.567c.266-1.155.48-2.294.694-3.444l.642-3.438c.141-.755.2-1.049.052-1.049a3.648,3.648,0,0,0-1.283.988l-.23-.527Z" fill="#f7f7f7" fill-rule="evenodd"></path><path id="Path_78" data-name="Path 78" d="M354.016,562.419a5.521,5.521,0,0,0-.5,2.433c0,1.26.5,1.871,1,1.871.769,0,1.713-1.322,1.713-3.382,0-1.066-.323-1.844-1.108-1.844-.336,0-.781.294-1.1.922Zm2.246,10.342c0-.506-.409-1.051-1.23-1.595a7.235,7.235,0,0,0-1.322-.822,2.432,2.432,0,0,0-1.66,2.161c0,1.261,1.182,1.682,2.108,1.682,1,0,2.1-.444,2.1-1.426Zm3.346-11.725a2.782,2.782,0,0,1-1.566,1.11.566.566,0,0,1-.231.023,2.656,2.656,0,0,1,.181.989,4.25,4.25,0,0,1-1.253,3.077,6.981,6.981,0,0,1-2.46,1.344.5.5,0,0,0-.247.378c0,.355.7.794,1.461,1.276,1.566.945,2.21,1.912,2.21,2.817,0,2.2-3.049,3.038-4.315,3.038-1.533,0-3.169-.7-3.169-2.206,0-1.027,1.05-2.027,2.955-2.932a1.642,1.642,0,0,1-.8-1.111c0-.4.338-.672,1.174-1.26a2.389,2.389,0,0,1-1.872-2.561,4.5,4.5,0,0,1,1.338-3.183,4,4,0,0,1,2.659-1.177,2.261,2.261,0,0,1,1.474.523,8.142,8.142,0,0,0,2.338-.44l.122.295Z" fill="#f7f7f7" fill-rule="evenodd"></path><path id="Path_79" data-name="Path 79" d="M369.111,567.579a3.852,3.852,0,0,1-2.355,1.277c-.78,0-1.172-.772-1.155-2.094a9.724,9.724,0,0,1,.839-3.921c.374-.8.8-1.139,1.177-1.139s.783.234,1.228.945a.482.482,0,0,0,.782.027,1.377,1.377,0,0,0,.5-.927c0-.583-.713-1.089-1.477-1.089a4.665,4.665,0,0,0-3.066,1.511,7.8,7.8,0,0,0-1.91,5.093c0,1.911.75,3.005,2.1,3.005a5.668,5.668,0,0,0,3.635-2.205l-.3-.483Z" fill="#f7f7f7" fill-rule="evenodd"></path><path id="Path_80" data-name="Path 80" d="M370.788,570.267c.178-1.072.373-2.1.553-3.172l1.621-9.641c.142-.844.126-.944-.479-.944h-.856V556c1.461-.361,3.1-.883,3.241-.883.217,0,.252.355.144.983l-1.428,7.909h.037a11.289,11.289,0,0,1,3.193-3.043,2.084,2.084,0,0,1,.978-.312c.41,0,1.05.25.694,2.183-.284,1.55-.622,3.31-.944,5.054-.1.544-.139.733.016.733a4.129,4.129,0,0,0,1.25-.883l.231.528a6.849,6.849,0,0,1-2.919,1.994c-.483,0-.716-.484-.466-1.745l.966-4.909c.172-.9.211-1.4-.2-1.4-.664,0-2.355,1.966-3.069,3.416-.106.583-.555,2.893-.661,4.071l-1.9.567Z" fill="#f7f7f7" fill-rule="evenodd"></path><path id="Path_81" data-name="Path 81" d="M383.89,555.71a1.329,1.329,0,0,0-1.211,1.4c.017.65.353,1.049.944,1.049a1.316,1.316,0,0,0,1.211-1.4.968.968,0,0,0-.944-1.05Zm-3.082,7.614a4.107,4.107,0,0,1,1.372-.966c.121,0,.105.166-.056.944l-1.1,5.366c-.25,1.243.07,1.6.478,1.6a7.924,7.924,0,0,0,3.052-2.144l-.25-.506a5.23,5.23,0,0,1-1.358.972c-.125,0-.125-.188-.017-.672l1.178-5.559c.2-.967.247-1.7-.375-1.7-.675,0-2.085.989-3.158,2.139l.237.527Z" fill="#f7f7f7" fill-rule="evenodd"></path><path id="Path_82" data-name="Path 82" d="M389.611,568.1a7.147,7.147,0,0,1-2.955,2.166c-.483,0-.769-.467-.5-1.955l1.889-10.858c.147-.844.127-.944-.478-.944h-.858V556c1.5-.378,3.049-.883,3.191-.883.213,0,.25.355.144.983l-2.069,11.869c-.089.466-.072.655.053.655a4.662,4.662,0,0,0,1.353-1.027l.233.5Z" fill="#f7f7f7" fill-rule="evenodd"></path><path id="Path_83" data-name="Path 83" d="M393.193,568.689c.3,0,.822-.416,1.533-1.277a11.316,11.316,0,0,0,1.233-1.866,15.864,15.864,0,0,0,.888-3.694,2.4,2.4,0,0,0-1.085-.25,1.62,1.62,0,0,0-.964.295,4.212,4.212,0,0,0-1.319,1.972,11.193,11.193,0,0,0-.73,3.648c0,.795.161,1.172.444,1.172Zm5.848-.438a6.838,6.838,0,0,1-2.9,2.016c-.338,0-.716-.234-.444-1.705l.356-1.989h-.056a11.941,11.941,0,0,1-2.246,2.727,4.027,4.027,0,0,1-1.658.967c-.606,0-1.267-.611-1.267-2.266a8.816,8.816,0,0,1,2.072-5.688,5.907,5.907,0,0,1,3.349-1.655,3.333,3.333,0,0,1,.75.061l.566-3.265c.145-.844.128-.944-.5-.944h-.838V556c1.427-.361,3.068-.883,3.209-.883.2,0,.217.355.109.983l-2,11.769c-.088.545-.1.755,0,.755a4.6,4.6,0,0,0,1.27-.883l.23.506Z" fill="#f7f7f7" fill-rule="evenodd"></path><path id="Path_84" data-name="Path 84" d="M400.485,562.8c1.033-1.15,2.264-2.139,2.871-2.139.461,0,.483.733.337,1.467l-.32,1.593h.053c.855-1.8,1.871-3.06,2.388-3.06a1.076,1.076,0,0,1,.961.567,1.135,1.135,0,0,1-.05.966,1.943,1.943,0,0,1-.536.689.346.346,0,0,1-.536-.023.911.911,0,0,0-.569-.249c-.178,0-.444.066-.836.694a7.289,7.289,0,0,0-.964,2.2c-.355,1.995-.589,3.444-.627,4.155h-.017l-1.907.611c.213-1.139.433-2.244.624-3.405l.589-3.371c.144-.861.163-1.155.038-1.155a4.187,4.187,0,0,0-1.268.988l-.231-.527Z" fill="#f7f7f7" fill-rule="evenodd"></path><path id="Path_85" data-name="Path 85" d="M410.949,561.814c-.5.332-1.263,1.316-1.569,3.687,2.138-.861,2.9-1.76,2.9-2.932,0-.778-.478-.988-.744-.988a1.086,1.086,0,0,0-.589.233Zm2.565,6.037c-1.762,2.1-3.315,2.416-4.082,2.416-.838,0-2.049-.611-2.049-3.067a7.31,7.31,0,0,1,2.105-5.242,4.836,4.836,0,0,1,2.835-1.3,1.609,1.609,0,0,1,1.731,1.678c0,1.933-3.05,3.249-4.743,3.876a4.2,4.2,0,0,0-.04.423c0,.982.25,2.221,1.3,2.221a3.894,3.894,0,0,0,2.635-1.51l.3.505Z" fill="#f7f7f7" fill-rule="evenodd"></path><path id="Path_86" data-name="Path 86" d="M415.172,562.8c1.036-1.15,2.353-2.139,2.941-2.139s.609.733.375,1.911l-.3,1.533h.052a10.557,10.557,0,0,1,3.086-3.066,2.263,2.263,0,0,1,1.068-.378c.392,0,1.089.25.606,2.644-.231,1.089-.589,2.849-.925,4.571-.105.566-.142.755-.019.755a4.19,4.19,0,0,0,1.283-.883l.233.528a7.131,7.131,0,0,1-2.907,1.994c-.533,0-.748-.484-.484-1.745l1.02-4.909c.18-.9.249-1.4-.175-1.4-.611,0-2.427,2.072-3.125,3.516-.121.483-.553,2.793-.657,3.971h-.017l-1.928.567c.267-1.155.481-2.294.694-3.444l.644-3.438c.14-.755.2-1.049.054-1.049a3.649,3.649,0,0,0-1.284.988l-.233-.527Z" fill="#f7f7f7" fill-rule="evenodd"></path><path id="Path_87" data-name="Path 87" d="M424.817,568.917c0-.916.519-1.571,1.247-1.571.625,0,1.069.571,1.069,1.366,0,.988-.606,1.555-1.244,1.555s-1.072-.567-1.072-1.35Z" fill="#f7f7f7" fill-rule="evenodd"></path></g></svg>